<mxfile host="app.diagrams.net" agent="Mozilla/5.0 (Windows NT 10.0; Win64; x64) AppleWebKit/537.36 (KHTML, like Gecko) Chrome/128.0.0.0 Safari/537.36" version="24.7.16">
  <diagram id="Ht1M8jgEwFfnCIfOTk4-" name="Page-1">
    <mxGraphModel dx="2569" dy="1523" grid="1" gridSize="10" guides="1" tooltips="1" connect="1" arrows="1" fold="1" page="1" pageScale="1" pageWidth="1169" pageHeight="827" math="0" shadow="0">
      <root>
        <mxCell id="0" />
        <mxCell id="1" parent="0" />
        <mxCell id="AF_eERp9qfh3rlxrhphH-1" value="" style="shape=image;verticalLabelPosition=bottom;labelBackgroundColor=default;verticalAlign=top;aspect=fixed;imageAspect=0;image=data:image/webp,UklGRj5MAABXRUJQVlA4WAoAAAAIAAAAsgIA/gEAVlA4IF5LAACwOQGdASqzAv8BPm0ylUikIqIhI9JquIANiWdu/AT5MtO5keTYl/0+7mdj/lvys/Lf50eSfCT3dpofxfCX57/cf670K+Xf+j91XzY/z/+7/yfu3/u3+Z/53uAf3H+weeJ6xv7N/w/9v+oHwC/ov9x/8P+G94P/R/tH7nf8f/j/+N+oHyAfy3+uf93sTP7J/5PYD/kP+k9Mj9nv/B8rX9c/2P7me0f/+9Z69D/0f8lfM5+q/2X+7/sp/NvUv8c+ZfsP5L/2P9ofis/tPLrzh+x3999iv4/9ffwf9O/u//D/wf7v/dj9W/w39I/pH7D+oPwi/nP7F7Av5B/JP7f/X/7v/y/7J6e/+Z20mn/7r/jeoF6s/OP8H/cv8J/3v8J6C38H+VX8+///yJ+if1f+z/l1/nP//+AH8e/o3+Q/MH/Gf///1/cv+y/yfi7eU/7L7u/sC/mf9A/wv98/1v/d/rX///+f4vfxn/Q/x374f5X2ofoP+D/5n+X/0/7e/YV/LP6R/s/7l/jv/t/ov/////u//9PuZ/an/5e65+wH/0Jn2n3r/qLvvcuwZLGI8J/sJQxSsGI6Xn9Qk/oOJJm8y9Vhq/i1x+RD7Gk2g3owJRkK+mNOMhX0xpxkK+mNOMhX0xpxkK6Nbil5bDMHkoyM9kaXClGUKOgqUiE+DqlvMBzdZwrqIR97Ac7EweVcm/afewG1OLPKuTdGl8oAw0HlXJv2n3sBzsTB5VyV/H72A51jwvd2o4vsa7xFvWJApLK7kZbB6t4zB5Vyb9p97Ac7Es9EnhM1Q6mGaa9Y7N5At1jw1w0GpPVIHaV0VVdgD3yFIdo2+NcqfyZZE/n55Vyb9p97Ac7EwdrK3Wm/Srs5hOKXxbP6OXKk+vi0r+wQA3NMCLVeYbcQaPhZpiSk7D4NZwHOn0jvDd7X+krnCOhMN7fwVH34wkSu1lnsubxmDyrk37T71wKlSSkKHRjcHji3OyRFTgp52mjBE1JvE3Wymgejy15kRh2RwnSeyQe4qAIWVi2eNOAYUTYDyLM2pACBkKISpGJ+YFpIJ+c9lzeMweVcm/afewAA9/Kxj8i9/M/7ecWoFUnrnEDE65PcCvV9gSDFP1rO0ueArU3UY+BmHlm8Zg8q5N+0+9gNqbT5othlnIduOlARCerk75pOziVJ9h+PclT5jsE7jlAB44w8+yaqoc89T5S5vGYPKuTftPvYDnWO/4/rv87U1mmPakm/Y679LfPkGZGe4WTveoFYDTkjnYmDyrk37T72A5rHLVxtiYI/XgAdoUb87B5Vyb9p97Ac7EwdrLKt5Lv8j9d/wJKG8aU9ER5UQ7zhPOLOFJ3Ozb9Q9DrMPPWGYPKuTftPvYDmsctXG2Jgj9d/wJWWp9bkueoLjCcqVmNSHeYKqdiWgtRNrvw6fdpkRoqXPAd+FXDGh0obYmMIUyl/gCUTDzRG/3/sj0f+tTqFvTFTc8I0tt0zmzkdhteIj7ZMgvMG2Sb9mGWtnHylU1sosozMT6surk9dNON+FXHuJWdzSSx78jQwmYiOFZYQVZJy6xVyfi8GmDCMTB2pr8qSHxq2yW2lFgU1U+UJXh8kBa1ijyK5Hc6e4wJP6Kn22RbAHeeXx67Yq1YeeN4/OZbwKdcoP1jMWOr7OW4mwWvHZ8a+W1NwLPC7Y8VtcP9qZAiDRr0nRKhA1nfKcTC/1yFLzydNVOdUzWwzqfm4Y8Nx4K/qgEGlbPZxE1e/YVcOEkcYUThB3E55QRZoDmOqOREooxUrr0jjnasg58UxYaesDwDXynuchXX+UHZa968IeWR6x3D2yFoU8kHRFdZcyEKojqD+iH5i8O8B4iQ+3MZSfFS+Rx1j9SzAFUlHWYY0sYprx9ytrQ1ltMnULrkNmMJYlOQz+mGY6iPU6ijKR/UmjoyuBpvh3DkaZtFNpKhQ9oIcebid2EyzFmzox5CMdoByZR/faWsdpiClMN/x2/IFL3+TI8wlTh/WROGBcx5q/ZHLxE2jrntf+ZglyXeZ5NVqyLmdwNxNgzUaz3HTiD6S5xdqa5KHARmvcxjfDV0lWxIWZOroLiM8yQE/CQSN5JkWD9lodxkqUEc0RQYdUJMh2M+EN3G3KrSSjpICDOxKRvp7YTScT1k7TTod58HwQe9gBetCCQkgO6+0Xd4na+5ndy8PtUsv/RoJ9uU5vdk8+RpNk54PXDD89NecSky+0ofHSbt7fvuO/jnyGnIqmWQdCZJ0arvkZcKLiQK6L+V8gpd0JynQ3Nbe1pjUNdll9YKkEht9+1zPdvkIdIPtNEK0Fur9sd2LHk4U57JyaNwaAqkBeMrZTg/Jw+PdmmTgq5qBDO454u95lsAu7B8tPI+NT0wi08JL3KSrJdzbhXO2ViLSUq3exakdmEk5JM9H6Q43l7nUwwX7yP4QcR5pPsSlWhweMvV8c7YIp30nJeqHV4FDsjqPGXHn33w557A/QeTG+BcpABY4yREMl17mgUV8n2SUeGSU/svsuIEcJW7aZ/GUQiSnReFdZ71mMB/UtXI8wthq7ZnV2QjpO1JgAYRxySICBVjLiYRPKQve+x7LjvutkxkcWCgkDNCCgK/qKB+H41UQkGfnkfO6Sv9gANnbYixPu7i0kDIJfKcnzx1zkmF/H6HSXpbXPPCv8sfq/tAojuYTYKYMATJnsuOldl2kkpRwOs5veHHpGiank8oIT5+01DI5LpRVz7OlqlZJS8UrPU58ipDenOPafvIjBuful40ua/20+oF5qiefs4FbXLybX5r654vZn4unXZM/Y+Ge1B81/nkxvg8q5N+0+/06YrEu1+D6pdLgl+63+AJkz2XHfdYqZ9UmfxQtJmlw6OK4HdsnG67Lm8Zg8q5N+0+9gACCVrMU6JtFQXqsusdlTA5ZGlcNAHTuulM5KTnq3fvwSiOX7jHpXtl/Qqul8Txi2GYPKuTftPvYDnYd2oZgdqYMk0dWa7dwKkOP1qefv+Y1+j478PqUL9iaHQEuYgK8k7PlZfp5IyOU40C6s3jMHlXJv2n3sBzrHfZnsoMLB9uy/W2NGLXeip12McDpyl0zA2qq+sXg+xIfzLhjY8cU+haf8n64UhvPUZMoqzQeVcm/afewHOxMHkyZghINiQfhUrstjH/A0Vu4Zierlr+9f/rr5PLxe7+PNrQ6uLH/SKxdstPvYDnYmDyrk37T6bozsTB5MmnVw4urUhyYyWuGV6OxzJr/0pkKvQ1D/hZS0+9gOdiYPKuTftPpujOxMHkyadaxTrLONyN5nHHD3p5m2Xg3BlZZ5Vyb9p97Ac7EweVUrIk+9gNRiFTnifZcNZIP3b6cZCvpjTjIV9MacZCvpjTjIV9MacZCvo/qJWAAAP7/foGZf9UNKnzkajLN4yPT5Bn1VrLq3ZI/lekm5ahb2+zw4MAs+k5RuepqVtyG/gNs9A0/HG7V+mYe8YlGxsRwSxwj76dIDQ1aiox0JEBoaOYFZeKuaN5FCwzBu0yK79N1NB4/qd09TZfotEY6OnqIatvO/jmXzpo6ppEVEudGcNm6ELz4zW8Bl/xoiXxJf8WJm40VdL+e6sB8s/gSgU7qOyWwWLY//DUTEQKk0+4wIcV57SRth9eglrPxS7WKu2QZJsNuOjXKBdxfqlNob6O4BM59QhDBLuEf1hD+9z4J1nAoIe79fSb7TBEt6xLsAbIfDC9RIQ2GEVLK/qJ4Ju8z+YLlMF+ZOpPcq0Ya3cjXOxQpb5ZjTU0YafvPq+6vh+UrFnhEYBv8+C0XD3n1ueODbkT7YfmHfaGWCUV8Uj3aNYNFr4K72HlAFzvuh+vMcbia3ZNHSfndHIas5lAL852WObxa1pj8WARdlOnCnt9cxDNrbE62X0xttSJeFDESWKbeEjVRgNnhoaizZU/KYxwUBRcqg47ElsrZaynPYKDtZMJh6cFKnnlnqJGoTPfqY0isMkdA/dq/LFi7lyq8gKuHPWBQPOUBIuAVk7JnvwGNkroVdaYUD4br206bEhxNk9EiSS1y4borkGEqmXVreRJrmVNdSM11FqKMIvO7vf550HbMSC1Fg9iK6EgTP8azd63Sq5ptPXHopNjpOTigZW2/tbsPxdC1oEs8s6YbBhOfezK9FhMnyAwzmRpi2ghNuHIo4NHqw27UYUqaNnO+oU10WnkNkCqWIXJLPbEF5DZL+A607G833xoo2TTjXEnzl+4fImK0XNwNbln7JTJXQxhjc91+SRMmsCiTTAA37HDrCd9a0VoAAAAhxUuC6yHf4iocS8bIUeQ80sFSNP8Z50kQzDK6EgKX5yCSYvXW62//x2kd6AxQsHsaa5812Dqtm176s3wVzDdCWGL7yGgGgjAJ21HNnNUyWYaPImh30nTUoTMm1/8KliAuC7HwQJsqolWw1KMMigz+EGAD4HK88O4OygZ8OzFHtIaS2Ol+pRpLE1ZFSfne0nwndTTH+aJbZ64Fuhf4NXSPYixhs9RQ16iPDZ4BmByJyvRmh6QXURS3jf47VqEAsrXs0ykPTFdfdQcDGHQNTwS72EVrbw8Qmb90TqvK0wIhZWChKkFATHdn9wS5LUKrYv/zCLvKQsDaUaJR4watnSP7e1wlLrGn4hTjT1/A9TUtN6wqY2qOTVjrhunGU7P7u5fTvbdoNENACGuX3pAdHiPHMNkZxigDCs5YfBUtjHpPYNDdUoRF/yCdTGrU6yPuX8dpykAqOopIODckex7s2UIwrk0eHJdLJvG6qYKrKaOJ5B70Gv/pPOfcNdUhek3RMM5/kBX/nW83YXqxz1aAkuppBG1DIcAuJV50wafGXh6nzIkQroUikQGU62aqHeqqqE1grboI2RRJWPSpjORKKAXXcrBjG8xUGSZyIijFGiqzegES28MTWmmqhIsFGJITOnYFfUal/URbkjZQTfXGcQIc72IN172qWvgaute8fyWi8FcmwENEdHp4oCACE9hzpWJWBy7m5Y2W+Nr5ISL3Byk+7RUOEgQ9o4r86Q/2TIkFFuMMNwoeLjs5GWpZmfYcH7zO0LuhfPaKTqoyi4EPqxxpr8AJ/TXPJXURj5IYivGS0/iwLtk26dx5w2Ox4vxkJDK5vYvKIk+UuKwSrq1l4QvdUQeuCaTjCbcNfzed1GwZ+jxS2a8QEMadlV+RAkch0SG5xpC8VIrpzFpFeGggIQ32ruvtJ1UAxZneEvevl9cjRKIrca+2q2xHG8d8ZUmqf6j6bO3s9ME4UYDy1FjYbGwwrAQ77aZAsv9AzkPJdZpcVVsdVmXYNP/9jbtImb7QoDHhXtMdCsXBp/YFCcqPZKZdmkfBnH2oSrM+de9geKVMttZcR1If8DV1jqQ0au0NQJoJPanyWnrW4r+fWTG1KslGnLysFsmqxnFxG8kYjQ6enkmvSzAtik2R1UEhjtplC82eOf1pnQK5SlBYhGI/fyevIg3AUv6sc5FkyoGPcEGD32qCjy7omsO/5yFsAFFs0JU1FtoTPEUzQxBdJDjpfvIjMqcVbbm7/ZJkLdsBAvxNAUHktS7Ydp5wtAiO/lPsTrmJUoIMPoeMtCW2ppkkCXtOg6liwoQ/wl6dmDQqhHDWCsUMQTpVDbkBViDiKHp8CAPrC8b7xw7I6/ENIHNHurzWrqatL8k/c4IIGc6o9tGedOxAvemwZ2mJPpLbB7itNwQI49POIhsuwydDf7eXG1NylsO1gFt2xcnsR4vbFFXvAkZyq5AWlTfO8A4veiPJ52hqx5MVSrlqb/SZ62590/p3N+FdZG/1XxK8uwjse+Kub+4/IH07eK02TcLwgpYyFz88ySTNO6PQofZTAjK92t7lSLy4s5IDwysU8hLXW+5x9amh4xrbSGVSMkkFe9ExxRC4ef423cpaJeqU1nEvusv/Fr9RiSZAtAQZPmAKkXI59wkj8hq4OaTR3KDwGFuw1z6YEa4aduzrEmh3iggeGmHEZ+DM7J58hr/J+3U1xlDsHLYMqtvx1RuTZNQgpQwV0VWrabzDu819UIFR4bXT94n7xDnZj1tgH77X/sttqeZebhL9nxwiZ1livt51ZCutX43547vUTUHyWJjqqWspLXZHXa8+XLzp7euG+N9Up/at/zzDhI/j4EPeCn3soJP856bpr06i2MVobc2LSLGbOJHBdcQYtoR2haMD8yVY+oQN6UInNs5IOv5D0ha+h+tdY6Jy18rgyPBfJqXlaoxFuZjJnoayuIph42i9KAq5Q9i4JObxjG/wG/XDZsDduqN0+MrBevp6yEfV4e5ymHYQvcSgfVdEIdGdmUNsdMMuQG4JSAdjEdbwtG7I7obqHz4bDLDQTPAc+D0jlVakHmKnQBw5/3DuAu2Zdz2vUuM2fVUyH8tmrr4QYoVmHxE7EbqkLiUBJx5GIPeWWLqC/1rNkZyR4wnpZXPxWd7ReZsDB0O6QLEPtptlQrBORuRYa2pg03z5Qgobf2a+UXG8KcMuo+fH1N+7C3oC7yjchMlLICUz5GJdCuSPkelZgGQKWr8eRK0kO/BQ8MaUFx2EzCe4fVzPY1DZccYKnj3iJjX9oizeHVeCVnnm0Z8eA7abmmG9u03KPHBFvU+LXBZa2fagvcReNgsEFuTnPDNWSHdV5p2NBvuDqdVVD7Ck20F7UbWAFDpo6JE2PI7uellmMh9l2hXys1Iut4bivUP+wpvDhTPh9umCHwgtJx8k4pZZ1mGJEIHV4Df4Sec7lRNw3ez7P0M4uf4MKaRBjiD4dgC2DRxXRze31xfKTArh0pzcSFLQ8+JB7a/4qlNQd9UVcehMlq+KLfzZyZkEyef8DkTef8czo+u+fmXtak8rhYqtqCLZXzfgAAuKwRQV6RsBj1lhgwkHQO+s638GoYgx3nitQ16ViVgAGqEzpiCbTxtELVRNvqf2FAGlVwGALA7BwM82R/M19LgN4nAWEYTrkZojhT3BEbhdHPoFI3j2/7NdKL+jwtFjqNDXuPdM0FBc4Pey8SgQHHI900rIXCFVyCggmoRhAVWw15Rr+h/2k5dr9EWJp0nygkAM5pnbV10tLdY48/KkFlUkav4u3vz+AHtwsBO5abMymJRO6/fCRkOJ7GKWL9gwYB2gqVjtbLwYeC0FYpS7abWlL36x0h2Bx35sP8iQA0FJODlKOQ5iiCJj0y7UjY77d6jYLaODptj4gm6+92xBEDZCUql6uX5BTTQpk3qM7IP6Deegn+2knK4PMgWWdgx0PuoJaIz7h22WjfmMlC7aA16dRRLd8S356Y2MQXDs+hwDL3lvywcyJnXzHlobNdqSMBVfi+2j4w58dNwPihCtxXZf3LM4EwHmmuh38qGMHPeruOoWH+BH+44odZ3frY33xkBeM/bvJqoFFjzVaPJ9ZjBcbsGvew3FlBzAyjIoUuuNu2kPFQf8TfFZkuLC2oscdlcNb5k/jxGMBG1Uh2tGXLKFtj9lBYptUIsj8Ca/TUu+JM4IZWeTY19ZJtOTO+FAEJzCPZei8/CdJ2W17LoIXSyUr0xprlDkjZGsbggN3jsItWn2wj9kAspP5dmN1gI4/Sqy7JL4bhH8tRUU9IK/7aSaszvhN1QBQg1SW9mC2eqlw9SMeQATc7xmkavrFFD5wvQc7k2ImMsZd+H8n+u3cj945dLTIPbb/QFa5RPolcrkvLYw1xenRJNV3ZJzkF5ZsDNybhD/EulkAkI2103E5WgeryFxuQPHO1KRxVcGCqSi+4xLhLo+TaGMIRgNTosrIi/HSDsLPFV90D0MbzWfhOwoRfXFKa0BP1eLKaGbiMAW60z+5zc7daKX+8EcKZeEZpkWV8NeweMuM4EDU31qVlu9hUm6DQEwm7lqkHxZ0Mxrr3E5KznlSbHzdaGhReVsEVI3qrt2DzAVpgBfeoZhANgAC+57VXYtWySsrOIM+JyMlavKKQsjpzMTmzgqrF58ipGr+zCS0AL2/ra7etmphbA1xTDHPA7lpuzv++rpeRMhPw81nggNfyI/ZSSZPJjnqZV+FH1MHXwRfHmENr04NzeHPuTr7gZCZFv+I9IULTmKECRhS8hgA8xx1oFuqhLDlCVP7sDzZO8wjcREiZ7vmmDDzTwV9Ny895JyA3YYQEdo9yldK7o3428uJfvGr7/hg1oTowI6fT9b65pozpPWLSP8eOoji/ze+eEV0vXIrUrLFaFJTK4cyLvI+aLMbZ+NcyQujFfqRgmmeoMdu3XCmWt9ZN3MtqGSKs/voeTyk0G/aW0C7xxLuNjPrliAsoBOxs8VeppyuHMWO8oXSKY3ACzPVcvMytlzMwI9RTtgaU8Nr9Nhh25+QdD8r3fHzCnNjOHVuUU0UGpCoNZQYgsLUpveN/eNwPM4ttD/yDP/zwpoAJzyBDlWsA9O5OssYBsJHltTJnlXo7C8y4QhLCLd3pSNaT3FTbbGr7NtHXObzZGDwVsyv3bGT5HMhJHZdSZDYE2R5d/FxHSCUsIJ0Jcj3PZtrNgh3ySt2BOgkhhP+isWTBI/QAPrwmZwp7EmmvUaie4BNVEb9KazWeFTiAVIFJ+6g4hWbIzxpB8+D4892Ly5nHovSN6J1AaxupCYiNj6og65b8YHyoLn8V8wBPnf2r+6cxa3BtE0wjTgaLGx3wJkX8kIMjyKrCCATAT5q+xGzXMuycUHa1TQNfFVskzQdCY17vC7wz+oExnw0Rl64pfcl8XoBoDhNe7BGp9EXiUcY0tRPNt80JMIKZFwUF22Ui6ZcIkZXi7kqnrCziPG0XZk0d/WEgBZ5vBV4MyfU3/HpOc3vf6jIwHbyZf5lsvvJ0XoDtVPsABJVENSLjiUQXpPtsOWCegEZdCGnEm3+yQFmGtGmY/6XYfYTmBiGqAVvA2kN6cSSRmLtnhFO+PWhHpzXhj5anpJAMjF2Klz6lV1w9GVVYLtiXZ0AeQyJ1NVLgkZgwlibGcoOPxl3HQcr32eIR+Cg/yq2vvpIdR/gH/N+5GjhOfXo7Jw+bx5mhrYZkmfrBHQUIOBXOmIZlNrEc7353BXw/U7Fc4QwdAD+JJfyvE63d+MCSjYl0l2YZDkwFj8dW19amzMApDyUpYPGsfwqFDQsM8mISLgzKbWI53wCWCi6HQ8bESGDng9R+5lkKXpnKLfm8LiwMJ4wb72W9NrW2iYvlPbAmAoAeN6DVcgXFFu+VqZByfm4/juw7OYs5lPrdoQORrq7AF4x2OBki5kwz2j/8cmD3enzXDXfn38rwBjREOmF76R9V+j9j48Cg3GpCjEaQrswWhOj06RDyl7RJyJ7d7T697amA/fIhtlkIjazLfC53VD/m/cjRwnPr0dk4fN448hAMTEhl/aneuHoyqbzUOuPHPKprDihyIQph7rft4Nm/w8jMxZVMkjEIxndWI4I1+SKpnKoWwcIJN4yper3YXbXM6/gEprLIXANczsaE3OQ2EuGi7snD5u1HNsIokav2p5vDq6/5FxZulmb0UR+O7BlAUY/dnD5j+EDcQi8D/gxpUP9lT1zxiOSv/PdC4lk/TE4Gu/Pv5XgDGiIdML30j6s0qERNmgrnjOsEThVuQdzefyNL+H771C68I97n4nk5yGsFbvDfy65T1hNlcDe6yez/zoFFwF6dYWcxlK3qYQ23a1KW0gZE0xKW4LenhPv/JMOhLjXGsR7dU2IueexQ5wx+1CldZIY36V+47oCmHMaP2GzSWsi16OycPm8eZoa2GZJn6wR0FCD9W19amzMAo0A+fgMh1AiD8hQVgIAN4ogBFmldAwb2QkUGsFwKTcM+TkLiZV/v2PoKGBpLIdDxc2QLH45ypAhycPm8eZoa2GZJgZX5W7E1j+1KR8DoyNrimVg7vtNLf8D1Odwh/FgHhUBC/55d3OTDla2v857pN6tr61NmYBSHkpSweNZBQke70/SCLNQxueYsTwylZoii7AZIV7Y5H+mc0NlxyxTwfKG1C5lZNoS/umM5I8tQX8qyoIqf/PklZOn6QmBpiGZTaxHDe0rO9xQiSgzPkijCCI9q1tomL5T2wW/QIXDju3BcijA5+O1gaYhmU2sRzvfncFfD9TsVzhDBzweo4qxnJHlqC/lWVBFT/58krJ0/SEwNMQzKbWI4b8+goYGksh0PFzZAsfjnKkCHJw+bylutbUCKwCoUGMCMSsOmQOdQFkvtx2wLvPgH5JLceUplurzrQoP4DdtxpWkOosOrdpMQ0fppcAlkk6TNjnf4sGNztwhyXf7NZmWMYALV+MxZ+Y8PsCQ8xoMvL+Ry3T2Lyebe6sVD1J30bSSZ/5NaDn/Ng+HZ6vLyRyYtsSpkOoI3jG07Nn3kM9rgEvHo+ZrLxSG6a9TDHhigACQ1CTGverLVvC4nPIN/0rrDt5LHTbffbRFFfR2e6pWtUne+YqHAUQWoreUoa33///0G/l63Xw2+Y+SXECgq2HSR3wOcPf0yMLDWPgs7xwXWMoG/bizOTZTWOuURBKSFR0FIuWoNQpJeUntoYjlGlL6wuHc2vjZNPlxufJaG6do+YFqisLm79L8fbN0b0584s3t3cldhCqU20MfDncV6pm2i5yqaHBSHADdF2zR+yC7CBmNa8gFbMR5JqQaq6aEe2+IKizBtfXsdx81+9yU+SpANNIseogkT/0KzoymtYoM5F1cdjKZvMIRpsBE2dy8/otNPKSUFPnuNT+uA3roBBPNuAlYqLKzIm099qU9xqf1wDrSbG8O7V54gTckyXi6yIrWJ2EPA6hn2DdkJ2QeMbAgIBHLiLe/g7sx2wCM5oLcFQVwvA92PXHAb0QHqE2m/rc/QWO8BrjkWUEZ31cq9OQyVse68UOE4zfjWooDoYudTZ4jBaBacAHUe/kDsFVLDcNbpGLNsUkGQAbXXm7BQf5VbX36Jk+pF9t7koJmrnHU9sUHX94gb9qDbgPZX1Qn+WvjNfa9LSCPmUJNQU9opt9k9D7grwY77KLXFOnpReuWpmRyC/393GGsjCQ1lpB1ZjpatjoNqAsl9uO2Bd58A/JJbiXfJhiVh0xTLqHSeVuoQvwR+r1SsdPFPdbujsuNsFye0DIglFh4XxU2YwFI1dw4mUd6PrfZCNNKzUa2HHImYPaubaTy2phwJnhJK43tnooXeal0b+oCYr8wNR5Y9bBuXrNEJr+O8UVuSEQrxMsnTd+3iZYxclRwkLnughiAiLk+bHztzpJpg/WjM8aYqPUdz1tuzPreqs3kjymKEGENohdryfW7OuAYspmpNfiNWgrPJkx78QH+CgBVaZz7J3T3sL5nYE8b4qun2BKmB6IjRdXL8PgzYq04UniZQQPM1BNuqZkTzpNVUlKDEEzqsgQ0Hx9pXbeIuICrrGosTkl7tqcEieJFjUrwDQuwcJc8Bh4JJynidP+dFDz6XE+YgOme7qIr+76b2mIckAmZdFbQcqHKw/ORqJ05OMxOHnOe2aXfTXffr08+F7w8n2f0ubyuO69pzbkc4e5mU3vXfwZhtT3G4uZZn1C7tqj31pPVvotjvdn3vjHG+XWMvYgxeSp3Q3M4ShOeavoSyPgf6HWEGnx5agnCnNPQUzj375AVn2bhxgX8YoniSndf8w+d4IIItGH8Xs3GNafjU7HkyZDI77Q8kUnisClm1U6Rws02vm7/eu0eA0MGsZA8ZtdL6Nwsq1zijwz50zwHM5O3cgzN87W64GOb3ZPpExpTYqW8ZlUCIqsr555Odhrg0ow2UzftqaK2TZB94pxOC1ZcuNcHvmtOfOoSAz+CxN9ZJfXL0+MX/PUted4IVhk/15q28lGpBIirEm83Gol+FfE6epwpR9EUkBeaaT9DTCPtGawvC3Qn/mSVXk3rbVMkx0s8aPkUjFVJRD5hRdGNfpYhbqtd2VdK2xP7rnBUcdp1GRNoHoFNkiSLx5S/5kTgrgISDkulFyJII+UW7oKfiG7bjStIdRYdW7SYho27BQf5VbX39sAriZB3WEGsmKqBmrQiCTqZ3wbhkJv9I3ZcrK3/cpwDrO7SJw9WFGbe/DmpgE72nqM5EPzUCY6W5VrqVXW3l8Z++i74SMpTBXXYYbsTZvFu1/2jG88D3BbGKHqndjc7ziNWFYyKgs+dCwjrFHxOItKSks3xFc6XRAajpd+f6OLlzrx4lJPm52EhM+NGhIcSCA0bJmseyjA7DR71TjPvU6zIXCuwQMCcgJsQkx6limSPZa1EYl5vsBopDVtiSGnNQqpSYGX7LgdVLc+Q5hxX+V2xlKgojlINVIBaPU0LHd31E5c9uq51YLhHj0Riz81qEH7i/KL+28NwlXL5EsKhLmdGHkMuaW+VDOVV6cBJROSLSgejQ7u0WYTZ/CGNrBpzZVQqrOArciSodsMb6cq2F6ygwUJCCWZxBXiIQ3c4gYqc7cEofyecMno2pRqRCbMbhcRzblIiox9SkbngtTTTij1Assgmxmqic4Lu4ejXdBzmSIeI1MTqju21gghcIJJF8nhvwxLV248Kt/9qZka5sYCDrGaSBj6JZiSx5eLb+6+Z3KFjuaeefGdDEXeiwqN/4IvT7FKu/sNlyQR9luCTGAfrC/6wjxPwlSvpZrAESnT3tp0zF7KWB27js3td49rjPgErlDc+HaNaiTM6U+3s+AuVCjw+3QBkB8jhAnX8/HVKQ2PFFMnmVsZ1VKq+yY6Q7Xp0EQCs638bDRehK7j8T6qHGdRDk2ctdh05wZ3x4UERtIlVPIBuFXMhgeIUWuf9oFauU6c0w39K9IGul+5zoYj+X/Eh4j1+EQCFlsPmrGQB06wGzwVi5hPJWyj11xWe1J7IZoJdoyj0j7bfcYH1Kxeamh2OTvmgagoARFn9OsI5ONxl5t3wRjfgjTHDkBzU6tsiiIqYkR5ZF4ReP5RpeoefdTmXTlg8jFvND3hFj1WEvzPqPjcycr80dwRooaL5V2gHamXRF7zunHn3rveF1kVVKUGpgjlPAoEIH68gwR7nR0WlbSbuJF9x0+UTxDP5GNXIjT6/9dLgnHdMjtnbbEBUBxyVd+NTD+Lk97S+tq8chbYGm9zV6oshlfcxp606ll0D+XgpG0hXCyABqmDjl6KLl5lJzf8NQt+KWp+8KoYgo6824zrGyFHb9mJAoF6H/90gyUD0GORaGcgvk/kcrArkDytJ1bbPBeM+6kSJvJOzZcVdpBLmZelO0LtUZ3nLBi2SVEdYNU/c0CZGdTOIPPylCKhRVqz8iNgUn0YOWI3mYNZzt7sCC+07IxmC78cyKaRhKYOaz98zlo3k57RSSx6ayFX7/olakQaawpZvypWdSZPtoLs53rHZeIRaqgBFpbKcxd4AOO+rD2EBByR77uEjaDK1m9Ix9rNCms5cvpv/LsDMVqgSySdJmxzv8WDG524NIi03E0zf8CEsZqY8Iwpha3/3ftKrrY/xth83YJkzChc0WR+EbI2Tc9dLAAVo0ilG1N6hceFdj1HyhFGeBe9bevXARWinjXpZRA9nSKyfyk7XVnTka/a2eQhKEAvUFIWPNAgir3VfHqHqt1i+r+U/iGFqJuRqzlMY81y0Sgoe/9oE0ExhY4dmnzkamusq8IqTUqi3lmMHqQmkq2U7U25W2UU38Oo4kSH8YZRDiPh5cNh3NZj5v2cTaVSJMXW/p2GmbJdS3d62wYppl15zLjH19WuiKUo3NlFOar8iQ7FT8rkdo9fSnJetOj7/SLyrF3Yx1W6cgGpr0RdGaXp3sVQSgMxb7RiGjhw6rbX67XyQZ8OqfjoGIOzDfDOk71OpZwRXaEO+3TH5geWx1vA3F3JC2uo89mjSVTYmKpkTdqxXnsNS32uw4O7LOnrJE1yozf1wToc9QLMvPCdE0zqHeEmus32lO1uva/RA5soFwgrfhwSSpOqVvPdjtd123ggG+vRcFjcyZ64YDFj34ul6GSVdmlGrTtE1cDka6OCscUnlnab+wZXzVDl+vFLuHuzwTMmXlxJHLX4n0J4xMZVhhNm1kWNb11hisRnH6Lbly18Ur1gaynj4NJ5/mo1lKxsTBxyni0nx0JSFki1phe6xi+3Cl1EP/OUU/uf3GuAJ7gjYMx9EpWLx2ZGzHPHIyKw1tQX67nDDtqCZauFEnhvwxLV248Kt/9qZe6MLGXxJD0p7BX4Q83gx61XeILAnzCfaqV/t39x/2SG+wt9Aa7gCgnmxCxrUUtlNxibBisG8O55o8TssWkO9mVUfRxyZzzFCXDIx26H4hyXgCi8PX09sBIeJmx0XbjXmvdjZXNGM631agSbv77lzp1H6YLBSixXhymNvb7EqoQX0egmkiLJSk/4esbUIh/fObyUDilvJeyVjBj5tM0lkBPLVOF9c7Z4mxklAw410eBfgpfNqQ9RvoyMqwOv3nC4i2DJY2HlckfxbMVGSBZ1OjclzbxQRb4ysuSEiGUtXYjJ9PhyMAetpjKF1ru6kSgtMnqXiCukqpDvhEF6PLprRqKdOA0Hy50lwa2gzYuOYlAVBsOVLDV3ILliySYTjjmHXxWLTQmc+Jcy7ompgJd7faFIAZVelohxU6/6CCRZr5j3pxIF1nWlcZMWvKLRZQNuakO9zhlD7mnne8J/TNqD4skIkrt3Mvlm8waLxeLo+9klB/oxIJTi1Fo+UvsQgnQapVIbebdKi+2k1T7FKzeiWnwEeHnMR3Oa6ymqZIjq81DyQv0AQWKfTYiQ5Es5dOH5WLYI6yt6CmytuHMIiqgYZCReo+ZwmiNlm7z/CMHm77kMvxkEq4LSZExC3T880mJodt3NWqkayyxHxHOgpMUoUlHcKQk06/oOv2m/3k5P4DescLRi46E6rq51Fp7rtoDGkPpDdo1/w7NZfaY/6Wh/Bmkbe6CuGf+Z2EcTJrRG2SKEgJzjrHA+HC2ASqXbIpo9q1k2Kg1BsflBlYwBvTGRBTUHiRFQCZrbMo1KAVsQDi++ka4p8VkGVMu/KW4nIdKyRQqHhzG0QUm6P67Pr2szGbEvWDU8Dmvv+V/pPwVWPLg7QoXJJAWF0jxFovxVVddti9+Cc1/A/nBWhATqFv7+dmJp1YlyjKzC6qkIMmVClo4FUcPUFyHdAs5rm13IkXfSM/vl9Dcfdo+DF+w5t17sQJhRqbgPZd38WxD2TZIXMHBOMIdz36OQ7cOPqjoohC6uUtdwPZQjZ2VIxqtGHYxyzNqnfBG2JgtOExtnJhQgdgm60XLHLE13n36TZuQ13C65x1PbFBwfNMgX4Qp/ojheBgSFlg1Fh1btJiGj9a8b/1Aoj/c0qAFUa2+f3lyMCW1wXizEgGHIt8P2n3DI7LwGr4f2BmdEKIeNH2/vp9xBUS7vQLUJkpLWlT5VnzzreQmhbgOmcZwcjzLqLqoV5hsIvM6RKxyZQMo+Rle+qBoES6NWxnMSJiVThn5SqN/1hfG3XuYHvxj8vPftPQCXPbmvTFJKLLDA/DsW1d8lzpCYAlfIC1UsTSbkpNBLYWfpxP2FBRgnB2Le7oppmo08jMPiyNynySkdd2WpJUafaJ0W8vObF8Brh2yxg7JipaW7nWXY98l5wvzi/24NolR/yBvAvJ3TqYBCuXzF2XVhOAifVGIBXdYb5SsO44jxNN6r2QkGCOp0gZQDaqLrhQgybNlpzHBCOUrT9IIqblyR0UEkeYRjYEH5vqZAz0tzeCrlxq0oOWwsfnW4yzSdKRLbrWnvZCETX2o0EYAmdXbPeCqKek8viiukNbktmmTw3DctyaVc079qujB4xg77X2K5hsxEOVLEjDY8BGSgX7mXe+AEnPDoHd8fgfWoP0lyNb343GRxPicd+RmPazfnhwrpqfj/qLZCR6d9Lvb5DirZGv7ka1PkRCPmZcCuFvLuVhqLDqH0ZWghOSSPbu61yUAC1p8fNweUl5VXJmimdnXEi8b4REKC0YgBhm5q2tV3JTsgIB5YM84K+uJP29QAkg6z4FRxHfINtAkhFrn+N+bQIwCssCIOBkZTCjexw0QyPNmnegnQ2Rvth3yTxyGP6B7oKTTq9Ql9p4a3IMUOLC+fuppNlB9S41EweKu1QhDuRduwOea28EcGQYlfEBZGXTGpspPdcsUCkOqgvnkUHhcDS7U9QCNqLjwqj9v0EJOg6lT077DiLtnbwRf24Qy4LPRUOzHMRSZSqyzeHewrg4a8KXojPx17bDKgxaQb8T8PaQMGAbAO5MK5ZtGsdhIYtZcyTkAkBAzkWbPsN59K/q71FK+aff6PJDkX03Esz10Agnm3ASsVFlZkTae+1Ke41P64DeugEE824CQ5W2xFGI5PrN1rmW81OOrrfhPOdRb9X2HoaOgMBhRN7kbu5eL9KuaCkprUyeBOXn+7VdeIyz2BhQuJl35zexN4Z4fgBsgOgHNVS+qZyGvclrcAlDVqLAKbgIdJs34GF2ffJAiFmeGOosh6G9fnAgCM13auMyEbAjt3r5V+4eb17lCjSr0Tk+lti5o5oyoJ+DrniNV/B2ptxbztb8iYPqK/ofmZy6UdBgAXG+a1orp5haM1UY6pdt8fSGMKKS3rDClH4Ejn+pngPNo1OOia8FqxJobJo+rgggc3sWrgQXwGo3nX8EUmUI2BW3dGPudr/Rv6ACR+SXq6G43H3Q22YnqVao2rBQ0OOykVQPfcV8sY0/GkmTaziBT8wmOcaFfdTEhCS4rzfFjqMebhRlWPN1eF0h8pWlIEWwZmaKfWxsgPwWYCmZzoTE+Gl09dxWic/CrGQ6wds6nB9lEEas0CJ7GkHMfXXLzGYqjSFT1+GqBk/BGNy6Q4j+0MuPvvHL5i00RQ1bEbUdxJzeaWoTmkR9cU8XpbbVBP3ffBRQiXzCRDImkfqyJ0If8Feb1hwRBwAY+ef22lurnG/wZ8ul6VSqFZUa5qA0661oZC6DgBz20UoRsutbzwW52vW4suyHVdRGR9fluOE9cMxx28xadzUTLfYDODOA6bg7zhHEuprV/XjvHUa0ue/q208/2AtTty59hasxyJlh4HxmFu0/htEixGvqap5ex1Z4oU7YNT8q78hRjrJMVtcLAP+SvEdZrBwou1rk/lyqLkUlxOjJZRZBz/Y6dMX3FlYGUftVtfeIllpkEObI173aGh2vpU/cRdcdQwkBzlUyGTaosCaJI/Tr4DrNvY8cG9DpOZv7e4iX/PAm5zZ8g38BSjpa1qvCSHX1G7SGvFGU+pZ8l/z3OvlnSUVuT/5gsKdorWuaso/hUZkMfLCxTwx9yqrfA5upcyUnKZxE9V44b3rYFnVpifMyWS1LIogGhag5Q3bl8SqfjBEWRcelPNnD/ONBGI1oyl9zdKqj/K/JZ7xPrVXYj9W5HoYMpydik0H/6eDCfGTy97FibpkWHWXR4xNI2LBjfFk9PQ7X9tjdfqYn5F26iLlJcCzb06DuxYNhYeJEcLwMCQssGvYkgcpUUm1EjTSe13olu7oNErJRIRJtprr6Jw4DCxAizT1Quh4QfDO8nG1oAlrLzNGMDy07+2G1kxvAvtWnY/6v3k4RpcYPxjqbynbig2+W+OxsLBfn1FmLVjwth7u+1a52kYjevxamvYoLcUagt7BIdxdk4YKE5xEZwkg03Lx44OLe/4jiP3mtpqw/y14nTcoZKBrokHQ4qstDQhF/a23fse2GfakIcWKIKLkmWR7aPd7oEyAs8ZCWhjtoNgiZwK6/zlkYsXCG2vI42ZqSowrYGd1XSPwOI7pCB1Nbz/JxiLjShdIzKwVK7YhIlfDstWjLLk6H1BU12Seyiri3DeDQ5LNi4JvQBMRL5QkiPWiqVOdKm8jXRuhBlxc7SXv67GCM11nvkBbR6yVm18hEU5rOrraT+bLGXN5pO4gBFm9FzKRai5Q1bZ1virWVhiv/3NLXAGxkFGDJkQwb+SnojMKr2pSOiXSoZ5nkU2153S39/rJR2DtawJfxERmfqKnYJJ9gUlWmNF5CJfb7J5WhsuMg+2TvdCggR9Vaz+6nUoTC7p90mIPZVyzxmTW30Vbudjyb3Qr3ck0VE5kskl7Q16WNrVU9j5b45ZoQmMPPew0dOyE6IaQmNhEehau5GCaXZSwfYnSDEdu1Tp/50WhCWc9txpmpvpYbfUt7Gi9xEMf+/sjHaLP25dDsGqEEGcir1T7JZX3lNT1EgDUzeJrMjEX0f1jHbUicuGDhWw08M0KHDpkucxePZbkBLrXIa12UCApBaMi4pYxvjRGeKkK9hryvBNNtQbJJJhCVULKxTKAWkJZCcq55bj1s9T/0AU4NzSU0Srv6uqOvRb/khCRKgjtX3xk2unJSdH+vW0Pb5p/S3EQPygx9KoQ4KnMUPCbnDDtqCZauFEnhvwxLV2HmLUf7VKVKOy0YcJuwdKHnQj2odmKbBLYX27gGQHDZ14k5jw1ANFLJohCV7p71YNWBN/cOAVzbpyuDUSOfpebV+5zfcDlHZdvCfF0B4HSw/720IwWab/ICn5lSOuq8nvrQsDBRDkADmfSQDeCHfJTIVU/yeebG8IinOmWDYFPdePkNAyag9GoRDBiGKPG7lwlTzIPJlLCiUEqYtQGU2GJK7szcsvAww5NpomNhwO8gGNA1S+JXOwsCnNG22SyCx1Tf3g6qYFRdGGbmtR/L2ie1uNXDJeXZL7GRw0do0de3bZQvWhNaAw3nHHD+n6eU7Yt8vgBimsvDY6FXc+beHUiEeIxMlLfr3r/X9g1btJfTEqGLhEerM2qiZPqRfbe5J1ITrEIBWHm5ejbPlXuPHmSpWAigusehEGvbUZQwnIRkzp3TJQQgHvREma7KlrR08vvrmp7SozYXQYU1L80Hc07UlyAHPakL0S3kCR5D2AVYTuM+uTPJ2ARJUA4fbltQ1elgvo164i9I2eC7YDtNh+NJ26yg8AI6YtpOS+EykF+ZAWrDdKuVAVMaZlu/R4DutXU5pJIzRv850+l5YCvV/tCxXxtaKmQSxSxcHt597BTMWQK4hVDcw54v6Qm3AmFmSD3L3np9jsyc+zfQEYCXbGoWSlMYEwBabMKI3gmZ+eTw7/8D/t5pDNijRdf69PR/bxZKu7Md2kzbUSzRIcuG9hm5yo99YE6nCH5kc6O5oxiUs5ep9badvkN/pJ6p3efeT1rpysjrEwvCYIshDgVSunv7o9pzm2bDDHBKTJgqV70XgSdl4/vIDKae/STFzYxWRaI6NzLAy+ZD21B9r6tZK0ji9SfSoymya9VMfTRktZ7bdr0WT7BEoA5zhZA7PJgBgfPTpgZ9KOvtrifF3V0/84WeKUKnMUPCbnDDtqCZauFEnhvwxLV248Kt/9qZfulVEpioRJ8TGoriYjANzacATqDrnHrmakpp0M+SR38JHW/5BL24Zbf6LEiQ21KM20spTWDm6G4P4r8nJRvioN1qnYK/Yay0IH0DDcd0KHa5ZvoFCusgUG79/oID6KCsqZLkdqR23vwE/0901Jw43iJG081IMny7g+ziEEYEk8scxEJBX2rjFDFDWfCVgVFvZVKykV4AFhhTsKFuQXVc1ySQiY5J7NkDnET3TvJz1OrA65Q4a4QuEVZxO4DDDfEnd7gFww/aWSptKfpcU8/CoJ/F6+50ryMb/L9NiZqn4EaPRD48eW5xMsL5w1UOUzIgu8AARyczKRZJVTBiex+Y8nG9SPWYFmj1LYIS8b9ycIvWLjd2jlCUh0lZgCfadmMjNmgHrM7PIInxbhIcno/91Y36FSSnMTP0hyDRzLNTYpuaWgVZTS0UdnflzrAWF76lwMIASNXFNSko/J+yksc6pkiemGzeNFJ1XnyGe4YzKXV2UJ43xSF8pp2ekaxlbSitq48Mq8hiwbKw/xFu1UbepsCOYT9nWLebYRsr80bq6XVEJ0fNS9YhiFFaStYNjMFD+c4Lo1NnUxODvr78+OVJp1LyWNG6JzFsh/CtwufXRX2ukaloNzP5vG4qB9R889LshvUv/Vf8a+JvdFshhqYcrJKXdpnT4jNlxMd16PfDsIY+DZ6wat2kxDR+mlwCWSTpM2Od/iwY3O3CEe6Y9M4piG2nm3ZB3vP5jowoDQtzx5q8tUfWC6l1WmVwfo7MPTy8KhhHX6AVSnQa56hvJ5lkgQ5TKdS7go943JEM6Xoz6dMwJe7+pJwnAUOn1nw0uN6Q3IgwQ+Lutc/wwEFRpHqjj+THTOodkGFanjLewHiuyM5KmnjsUfxTYL/d1SNgITiy0JkXVzNn4EA5UjVm1D2PpITM5KoPN2C3GSNm5bCM4u4LPEnOpVajOWKD9h9HlJudkRR0hYVv27Mq9i+E4hT8U88BM0S3MTyWg3xpJzND7rF9WsxeNvsg1/2Ied6VeTkZ+AhDqeQ7q+fx0mtLvRKpUR6Jg9YFFIDpiHL/A6su5f7VuGSZlUU4paRnNrtu/Fl03tejtygMr5Nrjdf2I00coJrKtc4FsWf/DXh47WsdE8bG9qWdZaMKRibd+znuXvPa0UM7pVtjbmePaXq3amHV5jQXLetoeg8lpEdJ+56fntWZe5HO7RGUG58ajaKJvnyG8jdWZwCwB7JDeRFHQwvJAwdMwKCuk0OK0HA9RaASNLdACnBtjM17twTGabfzCi5CDKtR1c3U9wrZhCvVUnXYGHz6bnnJIQ327Ysk1Yn4MQ/QWtZTf8k4Y7pWpl1DWfRnKF/rwen71gWSNZ2RCFjWlRAJQM8hMNaa1dRh8POZL7UqWyuBWPfM2TiX725+DZnngUQqcoLpkG9qv0GLuRyWP9zRhopx6h+tIslOJCu74XYJ8HJueD+tc1IBMJYdnRoDXZU1n2eHr6G7YOJ9XtMFXYP39O0JgSLMjybcmzH4e5Ymya/gByZC1M2w0AylnMCtNTLf1VitZWUZb0qovRrSz5CzgENPczcIMcbDAd0teJdRKzBSF6tAA+K6MiBrlyoUxI7KUMbwkVC+JBTwcjXcXbNBGTT7NfJiHPZ4V5RC2DCaFABsqfN0AJchfzankbbn7PRqKcNh/7TZVWYLwBd7/GuIA02ufVz7E/umVQCZtp/5HXGV8XX22tmfKtMXMJ8JN0zMWpk/jXXWSJQVwqhXJYzy59Svwb+YI6kvNWP5XYTGoD+xSIhBJKCTMoWI6ReJW1Mh+cQUCqAFnE+YUH0UiHL0Fe/3j0HNNJX1iiQypA7GSAnNY9G9sbTvejrzNwCe8JVCKWcgnJRcmi5Bg2L9L+wMpI8OIxv+FPGbeg4VLWoUiwRncl8lHRLpmQJc8pAuWZdbgNynl3ELlWIeVTXxbVzcZVzQt/G0HkhnsGPLtD0mIA9UT1sMrPSKx+kk6N/rbf/6zTWWqsCvU3BzAr5vm2kcgljQB9BqWVTuHzygkdHMzrre7BnUg3e/EtJfoZKEka+c0qivyhl5Vjnza8j3THpnFMQ8utH4tfKJS1B9VSPjMxOAHXIZgEPa8y94+klPiOkexeq3OfTLHblYL9kIJF2SKfgr9CVpm+hM19J+CIGLKuc9dZqUqiDu0/7q/olPsvMMaagA0LE673acB9t5Xjnn9YRl6dBLc+N05TM02NUQutRS6X36ICa3p7h2ZO1LZtGFkO3QvRBZovQoKDNSEnyrGoYa0SZ83fII8Cf1JZhnBWRdho7oUNiDiQeD6bVUsNmHbAJOiIr9zPLn/b400XtI44YYlUGi+oUxDcwtuP7I8ilCf5VnIYm6+fRnlt5Nd3sLHWuDJwiEOu8gr56oP66su0Hss6LtgOvq1d0W1G1sagu66S/ZBFZbfnO6+ofxtV6EL7ViVwb4r/w+jK7KYFP88xkuWSgs4HbJ0wzhV7xNLTkQZ53jFHDryQRbG2gOZiK/GFoLXGgLcnrCar0haSdv2hNhr8dkQtu2hn/oDiGFCi57qHnOreG+g7BVEJ+C325ltIyuPMhc5yJTMbgp2JpADY3iqO/yScmP8U7wT1uNLKlw8y0ph+Wf5xb5pepr20Xe9HMY0BlYD6WgWvePx1B0YhdSnuNT+uA3roBBPNuAlYqLKzIm09+C/yV7ITpAtegyUvmE3rr5PJG1q+zuuIcW6pgl5uaaO0VZjOHsBW3k47SLjten4BYBdRYuKwB/GFnwxgtXemmsWpng4N7Y86w593nV67NgYNqQSOENaWzuHzBdKefz0Qk+91bEgSDFXVNhMYB1RDnmf6evco//nbs2Bg3hakvaLkXu83dR/MaBKip82eYvXZ62mfPgd+WhmLMOdn+sOLza0Zk1EZzNoB0LJaneXHm38blr9TpgS8Yn/2gJJZt9/Cu8i1KosZG7fmW02tGZNRGc1wt9UT1pI/n0OB4oXUVrCbsrDsnMqZ67Ix+ba6hsmF2885tf+PRB7q2I/f4lKK6RG7QmGcbWAWAXUd9wVEBiF4Cm9+1hBrb1AHtKt6JDr8vjFtEwTalsvt/J+iSWu5/0/ALALqLDSbuPcuPPWzAoGLkXc52/rpajWHPu86vXZsDBtSCRwhrS2dw+YLpTz+eiEn3urYkCQX6qeS3lnH0A57VvJE4mf2fLL12etpn3EyoYxiEV5ozvngVWsF28pAHce5cak2Ecawga0tncPmC6U8/nohJ97q2I/hpwJFrejVcWYcwni1+p0sbGgOdCF8NS80nFE2Rd6AcEabgL11IZMEA5rGzmuGbffBIBVTvLrec2v+24VF5OrkC+bRxQ0LOK1cqnd35wKrWDeDMmojOZtBJ49jU7y482/jctfqdLGxoCajh3DNvvgkAqKc/M+tfvN//CHFK7aNADWkvxfrQWv1OljY0BNRw7hm33wSAVT/Scv7cWhEghOy/HQG7PWAAABlxudf344Xsm4IoqoQdM7y15hSsnvhPpVNMUYOCCinUI4b7fsijwoECgAVIC3IrtF5XV44VmBr+DL4q6g3ZrLJwRaHCq6RoFzfC1wcA9/kSWrWwuOTOSKPQc/gIyUAMzm3MSMNjAh5gIkns4nyk7cS8PSCvXgU0ACxe2htlJLfWQHw820ehTPrNjTQevx1USLqc7+KHUg+68VauLgIIGdjBwjMCoVk5E0b8dykXYUFafkxELIcejCTMzLHx+MdvH8kHhW5NiP9wFC+DudLnA5vNncFsnrMSSWdEjPwpcx1RT4hftxvT6dVAZO6P6CYjOtTN4rhvXNJOslCrOXdYCGs3U/10h+MIAHfWYjLwLWliCdy+ve8v6Wn7SsJ50LRoh2dPwQZuU7atNmS6A1B/Hjhi+lnKek5DHQ5TDLXtWQeAnpMUzAeWfdIuaN3x8708OI35kTUENOOshuEw+YBkG1pMRe0WaqtQgajP4R+mVZZ+rH9NiS6YRRnb9YX68pzqCNd3FdTy3WY3ngTPzx9rfiryp+2/OeSEoWOHRket4x8yBCeRgcUij4yVSjBju68PmKs3De/fV3EeRiidmE9p6Y33ikkrdx8+fck6qqBdLuYsgXcpgK3V6Q+dX3UBzFg8/oXjWw4n0uMPJ/JACt71JntGFP6DsfXmvHVh5aMvN1vMarwXfvLbU4XeMGnPMWCDByDB3daYhyUGZ7XLpGwqHB8YM1dOS+u48UNjXP+GVcG5s9aPSfraB+TFl7oLZB3DL34hL/OdXetKrbDcVWKwM3bHZoHt5ioRf6HU6lfieD55DJkm8z6nEeL7IDKpvgUC+IzBN0IwG3hR9+rKO4UvMotKEUMDSlWctlVqeQZ8yeS0HLSQUH6Pfkw0KKz3VgWDrAuuZO+TPg1h5E7cGqg0aytueNXvsz87OzaxZyYz4kNGMo0auxnfBua0BG9CYHVpHsoVenRoMv5hCW2bzdwoF6oVfcv7DJf7wN7DJe0o8jUjK40ETqhFBJH0GdJXQWND5TWo/u2ZtuiAGEmeXbBK+c6QWpH/GvfJ2UC3bMShSaQPANBaFtAwNjtiGwH6coGSG8iqqN0T1n3KECcsGPbrlyHNmELxuMxi0CYrkPo0xr3oHw8VuzmBDcrH1fp/5lbCmndvImz3hx9ox1ruyLk+q55GDtiOtoqvFog5j3FWNWEbsxWy0xViJ9I743S57PbaQI1clkfi8FsgAHs2qjzkKACfblg5G5USdC7LVbQoXgRPQoIWwYz18SFOSDpcK9eDeDH0S9Xs9uH3AnfhvBZRKa5gZRq34BEBGPV55sdaAACp+EOYR6d9XvROyYMRwv6dzOv3dniho5hUHwzf5sBQkrQ722tJLXdOqFihmKqe7lnJiooj9KmXj4EGvsYDLKfrpwo5XIVr52lCAIbvYEth8ySmQbUFssx/Dv/k4S+rlmK1e8Eyog+Ts0sZ5jG7rYBTKdcW4U0yjUMMhD/7nwsJeFSYUvRJykLWJDVS92PEjUctL6ca+m4ZP0hCsuRwDHsddfbkykXwzcTcFtFrJ9fe+Pyj6yrQoJCfJFyL3Puc6ofcxBKtvcw6aY4WwirAk/+N2Y+AObghZfFTOZjlm6zlUWwFpU5Eyv14DctaMenYl9/hTL0/kmyM8aoKBs2qMCXzXsFPiq1EIw/Kx0SWiDDPi+n7dgxr32aPjuMkC0VWdLqKD8Syqip8uGynXBlRAwAwmhUpkjOLAz9HeloQv8DxFhuPb3wK7P2/qeGIu1mGzjyzH/CMyxoSzJlUV390nuDcz1/8CAaa4cFbI2mzZwy1dFMuQY9RKbO8EjDqwEvGBubZy4poTOGhrVs5mtCvgcdwJZMQuBbU/tt3HzSfnUCTPVPquIBd2sA/r3ocQ2E1HEDN+QIj//EEppeq0yxcdggDRiPQHkOaepcMC+7hLMkrLNsXfSD305vAzuofc62w63WdoeTQjxygeIynpbSIbTPGWfLdgpB4+VEAf5o714MsJc2pc2NpQdY4wsHlLW9AJoUoZXtaXETXVFDiRiCTEOqbK8RXxV7C2BdvW10bqlmgxzD94Obda5kPiJAHHLobg6W+OPJVyCPc9sgQrkLDhR7SYAnmBAWOBo0GtkvxbVwYaiErmwZ4CcDI7OGAuXPxPMwkTXBw0mz3ey3K+MHwlsaFKkWRaYquXPrFy6uOkW384gfwgyfHYwKCPgEBUG5BGvusPxDrjl9p/r1kL4Ycx7SpV9eQQx+zQcyC62ihL9WMUgG1ykPogLyrxoMvt9dHYFgOGipL5bJ1M2rNftLnuJlj4mIZTaqWxGpB79sah/L6QVPD7PV6edlGN1f68tm4DDIR1zossb0OFufGwKpnTDaml7igZTuwYQXHBfDY0klmtTf4va0SRGWadKg1INhmQ9dJJ6VWKWp//9rHESJ0cZnVIaSt3HanMbuzYNw0tYvdCeYgRCQ2DdNSsXo/8MAQBmmjnm9IABsKkbR/JTYswPibAWRsTEy1OMQaVWFOj00FyI2I5ue3brrRXP3cgXS+WzFrXkVgWkUcOhukD9NFFihTcACD/bSfxJS8sOAkhdFlaVUH9WJvitQel7AkjFpSQlMBmWJWYYEHxxXe1WkrJlMqlY22txGBTerMTutj/d5xobLOrabv2DKEBmiCKwROAdvJPyM25+Mc2wblUWKGrV4JrNnuVfjkQCsIAAr23cS9uHaXQ9hfSxwT/IOVvn+ZJImS9pV9/H4bdBPvh0Z43wg4pCsiiyWGtKUbqn17tRIyzBYkZ6GoJFU9WhFisNiPbigNnrLdIRyYDNMXbeopJalDA+hSvh4to+UCWcfGzN+Na7c6wIoL5vEiYE9pEKdaZ6sFqtZVRGAK1amwIOCslLCgR4mSkgPiNuj9JfnCzJ5TTJMLTMHjFuO+tuFOnIVlmflQdnbWvuu/SjTE1dU9OHRgM7spQSc4jNzIs9o7yCJE5pj6ybOf+x9eriAwbNKaNsqJ81XJNmDJWMfaUFjb6ooaiJJENDhiGM19OshPOhmayA2dOZJ++Z1OskRRs8nxKP3EwAA2HzJ8zvlrbvHe2lOCdL2vA7xP9Bp9RPgACB3HBElFNTRaYAARVhJRroAAABFeGlmAABJSSoACAAAAAYAEgEDAAEAAAABAAAAGgEFAAEAAABWAAAAGwEFAAEAAABeAAAAKAEDAAEAAAACAAAAEwIDAAEAAAABAAAAaYcEAAEAAABmAAAAAAAAAEgAAAABAAAASAAAAAEAAAAGAACQBwAEAAAAMDIxMAGRBwAEAAAAAQIDAACgBwAEAAAAMDEwMAGgAwABAAAA//8AAAKgBAABAAAAswIAAAOgBAABAAAA/wEAAAAAAAA=;" vertex="1" parent="1">
          <mxGeometry x="280" y="-790" width="540.9" height="400" as="geometry" />
        </mxCell>
        <mxCell id="AF_eERp9qfh3rlxrhphH-3" value="REGISTRATION FUNCTION" style="sketch=0;points=[[0,0,0],[0.25,0,0],[0.5,0,0],[0.75,0,0],[1,0,0],[0,1,0],[0.25,1,0],[0.5,1,0],[0.75,1,0],[1,1,0],[0,0.25,0],[0,0.5,0],[0,0.75,0],[1,0.25,0],[1,0.5,0],[1,0.75,0]];outlineConnect=0;fontColor=#232F3E;fillColor=#ED7100;strokeColor=#ffffff;dashed=0;verticalLabelPosition=bottom;verticalAlign=top;align=center;html=1;fontSize=12;fontStyle=0;aspect=fixed;shape=mxgraph.aws4.resourceIcon;resIcon=mxgraph.aws4.lambda;" vertex="1" parent="1">
          <mxGeometry x="580" y="-250" width="98" height="98" as="geometry" />
        </mxCell>
        <mxCell id="AF_eERp9qfh3rlxrhphH-6" value="" style="outlineConnect=0;dashed=0;verticalLabelPosition=bottom;verticalAlign=top;align=center;html=1;shape=mxgraph.aws3.dynamo_db;fillColor=#2E73B8;gradientColor=none;direction=east;" vertex="1" parent="1">
          <mxGeometry x="740" y="-225" width="72" height="81" as="geometry" />
        </mxCell>
        <mxCell id="AF_eERp9qfh3rlxrhphH-7" value="" style="sketch=0;outlineConnect=0;fontColor=#232F3E;gradientColor=none;fillColor=#7AA116;strokeColor=none;dashed=0;verticalLabelPosition=bottom;verticalAlign=top;align=center;html=1;fontSize=12;fontStyle=0;aspect=fixed;pointerEvents=1;shape=mxgraph.aws4.bucket;" vertex="1" parent="1">
          <mxGeometry x="418.5" y="-20" width="75" height="78" as="geometry" />
        </mxCell>
        <mxCell id="AF_eERp9qfh3rlxrhphH-9" value="" style="sketch=0;points=[[0,0,0],[0.25,0,0],[0.5,0,0],[0.75,0,0],[1,0,0],[0,1,0],[0.25,1,0],[0.5,1,0],[0.75,1,0],[1,1,0],[0,0.25,0],[0,0.5,0],[0,0.75,0],[1,0.25,0],[1,0.5,0],[1,0.75,0]];outlineConnect=0;fontColor=#232F3E;fillColor=#8C4FFF;strokeColor=#ffffff;dashed=0;verticalLabelPosition=bottom;verticalAlign=top;align=center;html=1;fontSize=12;fontStyle=0;aspect=fixed;shape=mxgraph.aws4.resourceIcon;resIcon=mxgraph.aws4.api_gateway;" vertex="1" parent="1">
          <mxGeometry x="391.5" y="-225" width="115" height="115" as="geometry" />
        </mxCell>
        <mxCell id="AF_eERp9qfh3rlxrhphH-10" value="LOGIN FUNCTION" style="sketch=0;points=[[0,0,0],[0.25,0,0],[0.5,0,0],[0.75,0,0],[1,0,0],[0,1,0],[0.25,1,0],[0.5,1,0],[0.75,1,0],[1,1,0],[0,0.25,0],[0,0.5,0],[0,0.75,0],[1,0.25,0],[1,0.5,0],[1,0.75,0]];outlineConnect=0;fontColor=#232F3E;fillColor=#ED7100;strokeColor=#ffffff;dashed=0;verticalLabelPosition=bottom;verticalAlign=top;align=center;html=1;fontSize=12;fontStyle=0;aspect=fixed;shape=mxgraph.aws4.resourceIcon;resIcon=mxgraph.aws4.lambda;" vertex="1" parent="1">
          <mxGeometry x="580" y="-76" width="104" height="104" as="geometry" />
        </mxCell>
        <mxCell id="AF_eERp9qfh3rlxrhphH-32" style="edgeStyle=orthogonalEdgeStyle;rounded=0;orthogonalLoop=1;jettySize=auto;html=1;" edge="1" parent="1" source="AF_eERp9qfh3rlxrhphH-11" target="AF_eERp9qfh3rlxrhphH-7">
          <mxGeometry relative="1" as="geometry">
            <mxPoint x="400" y="20" as="targetPoint" />
            <Array as="points">
              <mxPoint x="68" y="19" />
            </Array>
          </mxGeometry>
        </mxCell>
        <mxCell id="AF_eERp9qfh3rlxrhphH-11" value="" style="sketch=0;outlineConnect=0;fontColor=#232F3E;gradientColor=none;fillColor=#232F3D;strokeColor=none;dashed=0;verticalLabelPosition=bottom;verticalAlign=top;align=center;html=1;fontSize=12;fontStyle=0;aspect=fixed;pointerEvents=1;shape=mxgraph.aws4.client;" vertex="1" parent="1">
          <mxGeometry x="19.51" y="-234.55" width="130.49" height="127.14" as="geometry" />
        </mxCell>
        <mxCell id="AF_eERp9qfh3rlxrhphH-12" value="" style="dashed=0;outlineConnect=0;html=1;align=center;labelPosition=center;verticalLabelPosition=bottom;verticalAlign=top;shape=mxgraph.webicons.github;gradientColor=#DFDEDE" vertex="1" parent="1">
          <mxGeometry x="-170" y="-225" width="102.4" height="102.4" as="geometry" />
        </mxCell>
        <mxCell id="AF_eERp9qfh3rlxrhphH-48" value="" style="shape=flexArrow;endArrow=classic;html=1;rounded=0;" edge="1" parent="1">
          <mxGeometry width="50" height="50" relative="1" as="geometry">
            <mxPoint x="160" y="-140" as="sourcePoint" />
            <mxPoint x="390" y="-140" as="targetPoint" />
          </mxGeometry>
        </mxCell>
      </root>
    </mxGraphModel>
  </diagram>
</mxfile>
